<mxfile host="app.diagrams.net" modified="2024-03-18T14:26:08.263Z" agent="Mozilla/5.0 (Windows NT 10.0; Win64; x64) AppleWebKit/537.36 (KHTML, like Gecko) Chrome/122.0.0.0 Safari/537.36" etag="-QbKVkMTKJJfChmMQphp" version="24.0.7" type="github">
  <diagram name="Page-1" id="e7e014a7-5840-1c2e-5031-d8a46d1fe8dd">
    <mxGraphModel dx="840" dy="445" grid="1" gridSize="10" guides="1" tooltips="1" connect="1" arrows="1" fold="1" page="1" pageScale="1" pageWidth="1169" pageHeight="826" background="none" math="0" shadow="0">
      <root>
        <mxCell id="0" />
        <mxCell id="1" parent="0" />
        <mxCell id="2" value="f(.)" style="swimlane;whiteSpace=wrap;fillColor=#FFFFFF;fontColor=#333333;strokeColor=#666666;" parent="1" vertex="1">
          <mxGeometry x="164.5" y="130" width="280" height="352" as="geometry" />
        </mxCell>
        <mxCell id="5" value="" style="ellipse;shape=startState;" parent="2" vertex="1">
          <mxGeometry x="125" y="40" width="30" height="30" as="geometry" />
        </mxCell>
        <mxCell id="6" value="" style="edgeStyle=elbowEdgeStyle;elbow=horizontal;verticalAlign=bottom;endArrow=open;endSize=8;strokeColor=#FF0000;endFill=1;rounded=0" parent="2" source="5" target="7" edge="1">
          <mxGeometry x="100" y="40" as="geometry">
            <mxPoint x="115" y="110" as="targetPoint" />
          </mxGeometry>
        </mxCell>
        <mxCell id="7" value="Conv1" style="" parent="2" vertex="1">
          <mxGeometry x="85" y="110" width="110" height="50" as="geometry" />
        </mxCell>
        <mxCell id="8" value="Conv2" style="" parent="2" vertex="1">
          <mxGeometry x="85" y="220" width="110" height="50" as="geometry" />
        </mxCell>
        <mxCell id="9" value="" style="endArrow=open;strokeColor=#FF0000;endFill=1;rounded=0" parent="2" source="7" target="8" edge="1">
          <mxGeometry relative="1" as="geometry" />
        </mxCell>
        <mxCell id="KhBxQpR7VVKsOt47wzYa-43" value="" style="ellipse;shape=startState;fillColor=#000000;" vertex="1" parent="2">
          <mxGeometry x="123" y="310" width="30" height="30" as="geometry" />
        </mxCell>
        <mxCell id="KhBxQpR7VVKsOt47wzYa-44" value="" style="edgeStyle=elbowEdgeStyle;elbow=horizontal;verticalAlign=bottom;endArrow=open;endSize=8;strokeColor=#FF0000;endFill=1;rounded=0" edge="1" parent="2" target="KhBxQpR7VVKsOt47wzYa-43">
          <mxGeometry x="-64.5" y="-88" as="geometry">
            <mxPoint x="135.5" y="310" as="targetPoint" />
            <mxPoint x="135.5" y="270" as="sourcePoint" />
            <Array as="points">
              <mxPoint x="136" y="292" />
            </Array>
          </mxGeometry>
        </mxCell>
      </root>
    </mxGraphModel>
  </diagram>
</mxfile>
